<?xml version="1.0" encoding="UTF-8" standalone="no"?>
<!-- Created with Inkscape (http://www.inkscape.org/) -->

<svg
   xmlns:dc="http://purl.org/dc/elements/1.1/"
   xmlns:cc="http://creativecommons.org/ns#"
   xmlns:rdf="http://www.w3.org/1999/02/22-rdf-syntax-ns#"
   xmlns:svg="http://www.w3.org/2000/svg"
   xmlns="http://www.w3.org/2000/svg"
   xmlns:xlink="http://www.w3.org/1999/xlink"
   xmlns:sodipodi="http://sodipodi.sourceforge.net/DTD/sodipodi-0.dtd"
   xmlns:inkscape="http://www.inkscape.org/namespaces/inkscape"
   width="2125.9841"
   height="1062.9921"
   id="svg3770"
   version="1.1"
   inkscape:version="0.48.4 r9939"
   sodipodi:docname="partC_3keer_partD_3keer.svg">
  <defs
     id="defs3772" />
  <sodipodi:namedview
     id="base"
     pagecolor="#ffffff"
     bordercolor="#666666"
     borderopacity="1.0"
     inkscape:pageopacity="0.0"
     inkscape:pageshadow="2"
     inkscape:zoom="1.4"
     inkscape:cx="209.4054"
     inkscape:cy="638.74108"
     inkscape:document-units="mm"
     inkscape:current-layer="layer1"
     showgrid="true"
     units="mm"
     objecttolerance="10000"
     inkscape:snap-global="true"
     inkscape:window-width="1366"
     inkscape:window-height="721"
     inkscape:window-x="-4"
     inkscape:window-y="-4"
     inkscape:window-maximized="1">
    <inkscape:grid
       type="xygrid"
       id="grid3778"
       empspacing="5"
       visible="true"
       enabled="true"
       snapvisiblegridlinesonly="true"
       units="mm"
       spacingx="0.5mm"
       spacingy="0.5mm"
       dotted="false" />
  </sodipodi:namedview>
  <metadata
     id="metadata3775">
    <rdf:RDF>
      <cc:Work
         rdf:about="">
        <dc:format>image/svg+xml</dc:format>
        <dc:type
           rdf:resource="http://purl.org/dc/dcmitype/StillImage" />
        <dc:title />
      </cc:Work>
    </rdf:RDF>
  </metadata>
  <g
     inkscape:label="Laag 1"
     inkscape:groupmode="layer"
     id="layer1"
     transform="translate(0,10.629911)"
     style="display:inline">
    <path
       style="fill:none;stroke:#ff0000;stroke-width:0.17716533;stroke-miterlimit:4;stroke-opacity:1;stroke-dasharray:none"
       d="m 19.604224,-5.8929624 0,62.0000004 -10.6249995,0 0,62.000002 124.1874955,0 0,-62.000002 10.625,0 0,62.000002 113.40625,0 0,-62.000002 10.625,0 0,62.000002 113.375,0 0,-62.000002 10.625,0 0,62.000002 113.40625,0 0,-62.000002 10.625,0 0,62.000002 113.375,0 0,-62.000002 10.625,0 0,62.000002 113.40625,0 0,-62.000002 10.625,0 0,62.000002 113.375,0 0,-62.000002 10.625,0 0,62.000002 113.40623,0 0,-62.000002 10.625,0 0,62.000002 113.3751,0 0,-62.000002 10.625,0 0,62.000002 113.4062,0 0,-62.000002 10.625,0 0,62.000002 113.375,0 0,-62.000002 10.625,0 0,62.000002 123.8438,0 0,-62.000002 -10.625,0 0,-62.0000004 -1477.562576,0 z"
       id="rect4749"
       inkscape:connector-curvature="0" />
    <use
       x="0"
       y="0"
       xlink:href="#rect4749"
       id="use7309"
       transform="translate(-2.0203051,129.8046)"
       width="2125.9841"
       height="1062.9921" />
    <use
       x="0"
       y="0"
       xlink:href="#use7309"
       id="use7311"
       transform="translate(0.50507627,127.82491)"
       width="2125.9841"
       height="1062.9921" />
    <path
       inkscape:connector-curvature="0"
       style="fill:none;stroke:#ff0000;stroke-width:0.17716533;stroke-miterlimit:4;stroke-opacity:1;stroke-dasharray:none"
       d="m 8.4885695,652.78238 0,62 10.6250005,0 0,62 113.56249,0 0,-62 10.625,0 0,62 113.40626,0 0,-62 10.625,0 0,62 113.375,0 0,-62 10.625,0 0,62 113.40624,0 0,-62 10.625,0 0,62 113.375,0 0,-62 10.625,0 0,62 113.40625,0 0,-62 10.625,0 0,62 113.375,0 0,-62 10.625,0 0,62 113.40619,0 0,-62 10.625,0 0,62 113.375,0 0,-62 10.625,0 0,62 113.4062,0 0,-62 10.625,0 0,62 113.375,0 0,-62 10.625,0 0,62 113.2188,0 0,-62 10.625,0 0,-62 -1498.8124305,0 z"
       id="rect4749-7" />
    <use
       x="0"
       y="0"
       xlink:href="#rect4749-7"
       id="use7853"
       transform="translate(0.20920948,132.7843)"
       width="2125.9841"
       height="1062.9921" />
    <use
       x="0"
       y="0"
       xlink:href="#use7853"
       id="use7855"
       transform="translate(-4.4285715e-8,134.71794)"
       width="2125.9841"
       height="1062.9921" />
    <use
       style="display:inline"
       x="0"
       y="0"
       xlink:href="#use7309"
       id="use7311-1"
       transform="translate(-0.15859429,257.68992)"
       width="2125.9841"
       height="1062.9921" />
    <path
       inkscape:connector-curvature="0"
       style="fill:none;stroke:#ff0000;stroke-width:0.17716533;stroke-miterlimit:4;stroke-opacity:1;stroke-dasharray:none;display:inline"
       d="m 7.6786657,516.48878 0,62 10.6250103,0 0,62 113.562484,0 0,-62 10.625,0 0,62 113.40626,0 0,-62 10.625,0 0,62 113.375,0 0,-62 10.625,0 0,62 113.40624,0 0,-62 10.625,0 0,62 113.375,0 0,-62 10.625,0 0,62 113.40625,0 0,-62 10.625,0 0,62 113.375,0 0,-62 10.625,0 0,62 113.40622,0 0,-62 10.62497,0 0,62 113.375,0 0,-62 10.625,0 0,62 113.4062,0 0,-62 10.625,0 0,62 113.375,0 0,-62 10.625,0 0,62 113.2188,0 0,-62 10.625,0 0,-62 -1498.8124343,0 z"
       id="rect4749-7-7" />
  </g>
</svg>
